<svg width="311" height="46" viewBox="0 0 311 46" fill="none" xmlns="http://www.w3.org/2000/svg">
<path d="M19.4789 45.4735C16.1156 45.4735 13.0326 44.6727 10.2299 43.0712C7.4272 41.4696 5.16501 39.1874 3.44334 36.2245C1.76171 33.2617 0.920898 29.7182 0.920898 25.5942C0.920898 21.5103 1.72167 17.9468 3.32322 14.9039C4.92477 11.8209 7.18696 9.43859 10.1098 7.75696C13.0727 6.03529 16.556 5.17446 20.5599 5.17446C22.0013 5.17446 23.4827 5.31459 25.0042 5.59486C26.5657 5.87513 28.0071 6.3556 29.3284 7.03626C30.6497 7.67688 31.7107 8.53772 32.5115 9.61876C33.3523 10.6998 33.7727 12.0411 33.7727 13.6427C33.8127 15.3643 33.2922 16.8858 32.2112 18.2071C31.1301 19.4883 29.6087 20.1289 27.6468 20.1289C26.4456 20.1289 25.5848 19.8487 25.0643 19.2881C24.5838 18.6875 24.3636 18.2471 24.4036 17.9668C24.4036 17.8467 24.6439 17.6465 25.1243 17.3663C25.6448 17.046 26.1453 16.5855 26.6258 15.9849C27.1463 15.3443 27.4065 14.5035 27.4065 13.4625C27.4065 11.6607 26.806 10.2394 25.6048 9.19835C24.4036 8.11731 22.702 7.57679 20.4999 7.57679C18.0975 7.57679 15.9354 8.25744 14.0136 9.61876C12.1318 10.9801 10.6503 12.982 9.56927 15.6246C8.48822 18.2271 7.9477 21.4302 7.9477 25.2339C7.9477 28.437 8.50824 31.3598 9.62933 34.0024C10.7905 36.6049 12.392 38.6869 14.434 40.2484C16.516 41.7699 18.9183 42.5306 21.641 42.5306C23.8031 42.5306 25.6448 42.0902 27.1663 41.2094C28.7278 40.2885 30.1292 38.8271 31.3704 36.8251C31.7307 36.1445 32.3713 36.0844 33.2922 36.6449C33.6526 36.8852 33.9329 37.1855 34.1331 37.5458C34.3332 37.8661 34.2932 38.2065 34.0129 38.5668C32.4915 40.4887 31.0501 41.9501 29.6887 42.9511C28.3274 43.912 26.846 44.5726 25.2444 44.933C23.6429 45.2933 21.721 45.4735 19.4789 45.4735Z" fill="#2B111A"/>
<path d="M52.3222 44.993C49.5195 44.993 47.0571 44.3324 44.9351 43.0111C42.8531 41.6898 41.2315 39.9682 40.0704 37.8461C38.9092 35.7241 38.3287 33.4619 38.3287 31.0595C38.3287 28.6972 38.7491 26.5952 39.5899 24.7534C40.4307 22.9116 41.5318 21.3701 42.8931 20.1289C44.2945 18.8877 45.8159 17.9468 47.4575 17.3062C49.0991 16.6656 50.7207 16.3453 52.3222 16.3453C55.1249 16.3453 57.5673 17.0059 59.6493 18.3272C61.7714 19.6485 63.413 21.3701 64.5741 23.4922C65.7352 25.6143 66.3158 27.8765 66.3158 30.2788C66.3158 32.6411 65.8753 34.7431 64.9945 36.5849C64.1537 38.4267 63.0326 39.9682 61.6312 41.2094C60.2699 42.4506 58.7685 43.3915 57.1269 44.0321C55.4853 44.6727 53.8837 44.993 52.3222 44.993ZM52.3222 42.7709C54.2841 42.7709 55.8256 42.1903 56.9467 41.0292C58.1078 39.8681 58.9286 38.3466 59.4091 36.4648C59.9296 34.5429 60.1898 32.4809 60.1898 30.2788C60.1898 28.1567 59.9296 26.2148 59.4091 24.4531C58.8886 22.6914 58.0478 21.27 56.8866 20.189C55.7255 19.108 54.204 18.5674 52.3222 18.5674C50.3603 18.5674 48.7988 19.148 47.6377 20.3091C46.4766 21.4302 45.6558 22.9317 45.1753 24.8135C44.6948 26.6553 44.4546 28.6972 44.4546 30.9394C44.4546 33.0214 44.6948 34.9633 45.1753 36.7651C45.6958 38.5668 46.5366 40.0282 47.6977 41.1493C48.8589 42.2304 50.4004 42.7709 52.3222 42.7709Z" fill="#2B111A"/>
<path d="M85.2252 44.993C82.4225 44.993 79.9601 44.3324 77.838 43.0111C75.756 41.6898 74.1344 39.9682 72.9733 37.8461C71.8122 35.7241 71.2316 33.4619 71.2316 31.0595C71.2316 28.6972 71.652 26.5952 72.4928 24.7534C73.3337 22.9116 74.4347 21.3701 75.796 20.1289C77.1974 18.8877 78.7189 17.9468 80.3605 17.3062C82.002 16.6656 83.6236 16.3453 85.2252 16.3453C88.0279 16.3453 90.4702 17.0059 92.5523 18.3272C94.6743 19.6485 96.3159 21.3701 97.477 23.4922C98.6382 25.6143 99.2187 27.8765 99.2187 30.2788C99.2187 32.6411 98.7783 34.7431 97.8974 36.5849C97.0566 38.4267 95.9355 39.9682 94.5342 41.2094C93.1729 42.4506 91.6714 43.3915 90.0298 44.0321C88.3882 44.6727 86.7867 44.993 85.2252 44.993ZM85.2252 42.7709C87.1871 42.7709 88.7286 42.1903 89.8496 41.0292C91.0108 39.8681 91.8316 38.3466 92.312 36.4648C92.8325 34.5429 93.0928 32.4809 93.0928 30.2788C93.0928 28.1567 92.8325 26.2148 92.312 24.4531C91.7915 22.6914 90.9507 21.27 89.7896 20.189C88.6285 19.108 87.107 18.5674 85.2252 18.5674C83.2633 18.5674 81.7018 19.148 80.5406 20.3091C79.3795 21.4302 78.5587 22.9317 78.0782 24.8135C77.5978 26.6553 77.3576 28.6972 77.3576 30.9394C77.3576 33.0214 77.5978 34.9633 78.0782 36.7651C78.5988 38.5668 79.4396 40.0282 80.6007 41.1493C81.7618 42.2304 83.3033 42.7709 85.2252 42.7709Z" fill="#2B111A"/>
<path d="M103.545 44.4525C103.225 44.4525 102.985 44.3324 102.825 44.0922C102.664 43.8119 102.584 43.5316 102.584 43.2513C102.624 42.6508 102.764 42.3305 103.005 42.2904C103.285 42.2103 103.605 42.1703 103.966 42.1703C105.087 42.1703 105.847 41.9901 106.248 41.6298C106.688 41.2294 106.929 40.7089 106.969 40.0683C107.049 39.4276 107.089 38.767 107.089 38.0863V8.83801C107.089 8.11731 107.049 7.45667 106.969 6.85609C106.929 6.21546 106.708 5.71498 106.308 5.35463C105.908 4.95424 105.147 4.75405 104.026 4.75405C103.665 4.75405 103.325 4.71401 103.005 4.63393C102.724 4.51382 102.584 4.15347 102.584 3.55289C102.584 2.9523 102.905 2.59195 103.545 2.47184C105.387 2.19157 106.788 1.9113 107.749 1.63102C108.75 1.35075 109.511 1.11052 110.032 0.910323C110.552 0.710129 111.012 0.590013 111.413 0.549975C111.733 0.509937 111.993 0.569996 112.194 0.730151C112.434 0.890306 112.554 1.21062 112.554 1.69108V29.1377C114.316 28.7773 115.757 28.0366 116.878 26.9155L121.923 21.7505C122.163 21.4702 122.424 21.17 122.704 20.8496C123.024 20.5293 123.204 20.229 123.244 19.9488C123.324 19.6685 123.164 19.4483 122.764 19.2881C122.363 19.128 121.603 19.0879 120.482 19.168C120.041 19.0879 119.801 18.7276 119.761 18.087C119.761 17.7667 119.841 17.4864 120.001 17.2462C120.201 17.0059 120.442 16.8858 120.722 16.8858C121.643 16.9258 122.744 16.9659 124.025 17.0059C125.346 17.046 126.447 17.066 127.328 17.066C128.009 17.066 128.67 17.046 129.31 17.0059C129.991 16.9659 130.671 16.9258 131.352 16.8858C131.672 16.8858 131.913 17.0059 132.073 17.2462C132.233 17.4864 132.313 17.7667 132.313 18.087C132.273 18.6075 132.153 18.9278 131.953 19.0479C131.793 19.128 131.572 19.168 131.292 19.168C129.731 19.168 128.469 19.4483 127.508 20.0088C126.548 20.5694 125.466 21.4702 124.265 22.7114L119.22 27.8765C119.701 28.5171 120.342 29.2978 121.142 30.2187C121.943 31.1396 122.784 32.1206 123.665 33.1616C124.586 34.1625 125.446 35.1235 126.247 36.0444C127.048 36.9252 127.689 37.6459 128.169 38.2065C129.33 39.4477 130.291 40.4086 131.052 41.0893C131.853 41.7299 132.834 42.0902 133.995 42.1703C134.315 42.2103 134.615 42.2704 134.896 42.3505C135.176 42.3905 135.316 42.6908 135.316 43.2513C135.316 43.5316 135.236 43.8119 135.076 44.0922C134.956 44.3324 134.715 44.4525 134.355 44.4525C133.795 44.4125 133.334 44.3724 132.974 44.3324C132.613 44.3324 132.213 44.3124 131.773 44.2723C131.332 44.2723 130.692 44.2723 129.851 44.2723C129.05 44.2723 127.889 44.2723 126.367 44.2723C124.966 42.7509 123.344 40.9291 121.503 38.807C119.701 36.685 117.899 34.5829 116.097 32.5009C115.697 32.0605 115.177 31.6601 114.536 31.2998C113.935 30.8994 113.275 30.7392 112.554 30.8193V38.0863C112.554 38.767 112.574 39.4276 112.614 40.0683C112.694 40.7089 112.934 41.2294 113.335 41.6298C113.775 41.9901 114.536 42.1703 115.617 42.1703C116.017 42.1703 116.338 42.2103 116.578 42.2904C116.858 42.3305 117.018 42.6508 117.058 43.2513C117.058 43.5316 116.978 43.8119 116.818 44.0922C116.658 44.3324 116.418 44.4525 116.097 44.4525C114.936 44.3724 113.855 44.3124 112.854 44.2723C111.853 44.2723 110.832 44.2723 109.791 44.2723C108.71 44.2723 107.689 44.2723 106.728 44.2723C105.767 44.3124 104.706 44.3724 103.545 44.4525Z" fill="#2B111A"/>
<path d="M163.072 45.4724C161.478 45.4454 159.925 45.2158 158.412 44.7836C156.926 44.3784 155.589 43.7436 154.401 42.8792C153.212 41.9878 152.267 40.8668 151.564 39.5161C150.862 38.1655 150.511 36.5583 150.511 34.6944C150.511 33.4248 150.754 32.2362 151.24 31.1287C151.753 29.9942 152.496 29.0488 153.469 28.2924C154.468 27.509 155.711 26.9958 157.196 26.7527V26.6311C156.305 25.9558 155.657 25.2265 155.251 24.4431C154.846 23.6598 154.644 22.8089 154.644 21.8904C154.644 20.1346 155.278 18.7165 156.548 17.636C157.845 16.5284 159.641 15.9747 161.937 15.9747C162.937 15.9747 163.868 16.1232 164.733 16.4204C165.597 16.7175 166.3 17.1767 166.84 17.798C167.407 18.4193 167.691 19.2162 167.691 20.1886C167.691 20.999 167.448 21.7284 166.961 22.3767C166.502 23.025 165.827 23.3491 164.935 23.3491C164.341 23.3491 163.882 23.2005 163.558 22.9034C163.234 22.6063 163.072 22.3902 163.072 22.2551C163.072 22.2011 163.18 22.093 163.396 21.9309C163.639 21.7419 163.868 21.4987 164.085 21.2016C164.301 20.8775 164.409 20.4858 164.409 20.0266C164.409 19.2162 164.125 18.5814 163.558 18.1222C162.991 17.663 162.302 17.4334 161.491 17.4334C160.114 17.4334 159.087 17.8521 158.412 18.6894C157.737 19.4998 157.399 20.4453 157.399 21.5258C157.399 23.4977 158.223 24.9293 159.871 25.8208H161.208C161.532 25.8208 161.788 25.8478 161.978 25.9018C162.194 25.9558 162.315 26.253 162.342 26.7932C162.342 27.0363 162.275 27.2659 162.14 27.482C162.032 27.6711 161.843 27.7657 161.572 27.7657H160.154C158.912 27.8737 157.899 28.2519 157.115 28.9002C156.332 29.5215 155.751 30.2913 155.373 31.2098C154.995 32.1282 154.806 33.0736 154.806 34.0461C154.806 35.8019 155.211 37.3281 156.021 38.6247C156.832 39.9213 157.953 40.9208 159.384 41.6231C160.843 42.2984 162.491 42.6361 164.328 42.6361C166.3 42.6361 168.096 42.2309 169.717 41.4205C171.364 40.6101 172.675 39.4891 173.647 38.0575C174.646 36.5988 175.146 34.951 175.146 33.1142C175.146 32.1417 174.957 31.2098 174.579 30.3184C174.228 29.4269 173.688 28.6976 172.958 28.1303C172.229 27.5631 171.337 27.2794 170.284 27.2794C169.852 27.2794 169.352 27.374 168.785 27.5631C168.244 27.7522 167.785 28.0493 167.407 28.4545C167.029 28.8327 166.853 29.3324 166.88 29.9537C166.907 30.3048 167.029 30.6425 167.245 30.9667C167.461 31.2638 167.799 31.4529 168.258 31.5339C168.717 31.5879 169.122 31.5339 169.474 31.3718C169.825 31.2098 170.095 31.0342 170.284 30.8451C170.5 30.656 170.635 30.5615 170.689 30.5615C170.824 30.5885 171 30.7911 171.216 31.1692C171.459 31.5474 171.54 32.0201 171.459 32.5874C171.351 33.3167 171.027 33.884 170.487 34.2892C169.973 34.6674 169.352 34.8565 168.623 34.8565C167.596 34.8565 166.772 34.4513 166.151 33.6409C165.53 32.8035 165.219 31.7365 165.219 30.4399C165.219 29.0353 165.476 27.8872 165.989 26.9958C166.529 26.1044 167.232 25.4021 168.096 24.8888C168.987 24.3756 169.973 23.9974 171.054 23.7543C172.134 23.4842 173.228 23.2816 174.336 23.1465C175.47 23.0115 176.551 22.8899 177.577 22.7818C178.604 22.6468 179.482 22.4577 180.211 22.2146C180.805 21.9985 181.305 21.6878 181.71 21.2826C182.115 20.8775 182.305 20.4182 182.277 19.905C182.25 19.5809 182.129 19.2972 181.913 19.0541C181.697 18.811 181.319 18.6489 180.778 18.5679C180.319 18.5139 179.914 18.5679 179.563 18.73C179.212 18.892 178.928 19.0676 178.712 19.2567C178.523 19.4458 178.401 19.5403 178.347 19.5403C178.239 19.5133 178.064 19.3107 177.82 18.9326C177.577 18.5544 177.496 18.0817 177.577 17.5144C177.685 16.7851 177.983 16.2448 178.469 15.8936C178.955 15.5155 179.509 15.2994 180.13 15.2453C180.778 15.1913 181.386 15.2859 181.953 15.529C182.683 15.8801 183.182 16.4204 183.453 17.1497C183.723 17.8521 183.844 18.5544 183.817 19.2567C183.79 20.7424 183.29 22.012 182.318 23.0655C181.373 24.119 180.116 24.9293 178.55 25.4966C177.01 26.0369 175.322 26.307 173.485 26.307C174.592 27.2524 175.443 28.2924 176.038 29.4269C176.659 30.5615 176.97 31.804 176.97 33.1547C176.97 35.7209 176.348 37.9359 175.106 39.7998C173.863 41.6366 172.188 43.0548 170.081 44.0542C168.001 45.0267 165.665 45.4994 163.072 45.4724Z" fill="#845F6C"/>
<path d="M208.205 44.933C207.804 44.933 207.524 44.7928 207.364 44.5126C207.204 44.2323 207.123 43.932 207.123 43.6117C207.164 42.931 207.324 42.5507 207.604 42.4706C207.884 42.3905 208.225 42.3505 208.625 42.3505C209.906 42.3505 210.807 42.1303 211.328 41.6898C211.848 41.2094 212.168 40.6288 212.288 39.9481C212.449 39.2274 212.529 38.4867 212.529 37.726V9.07824H208.385C207.023 9.11828 205.962 9.41857 205.202 9.97911C204.441 10.4996 203.88 11.3404 203.52 12.5016C203.16 13.6226 202.839 15.0841 202.559 16.8858C202.519 17.2462 202.259 17.5264 201.778 17.7266C201.338 17.8868 200.897 17.9669 200.457 17.9669C200.177 17.9669 199.856 17.8668 199.496 17.6666C199.176 17.4664 199.016 17.1661 199.016 16.7657L199.196 8.29748C199.196 7.73694 199.356 7.35657 199.676 7.15638C199.997 6.95618 200.377 6.85609 200.817 6.85609H230.186C230.626 6.85609 230.987 6.95618 231.267 7.15638C231.587 7.35657 231.747 7.73694 231.747 8.29748L231.988 16.7657C231.988 17.1661 231.807 17.4664 231.447 17.6666C231.127 17.8668 230.806 17.9669 230.486 17.9669C230.086 17.9669 229.665 17.8868 229.225 17.7266C228.784 17.5264 228.524 17.2462 228.444 16.8858C228.164 15.0841 227.824 13.6226 227.423 12.5016C227.063 11.3404 226.502 10.4996 225.741 9.97911C225.021 9.41857 223.96 9.11828 222.558 9.07824H218.474V37.726C218.515 38.4867 218.595 39.2274 218.715 39.9481C218.835 40.6288 219.155 41.2094 219.676 41.6898C220.236 42.1303 221.137 42.3505 222.378 42.3505C222.779 42.3505 223.119 42.3905 223.399 42.4706C223.68 42.5507 223.84 42.931 223.88 43.6117C223.88 43.932 223.8 44.2323 223.639 44.5126C223.479 44.7928 223.199 44.933 222.799 44.933C221.517 44.8529 220.296 44.7928 219.135 44.7528C218.014 44.7528 216.873 44.7528 215.712 44.7528C213.309 44.7528 210.807 44.8129 208.205 44.933Z" fill="#2B111A"/>
<path d="M239.626 45.4735C237.183 45.4735 235.221 44.7728 233.74 43.3715C232.299 41.9701 231.578 40.2885 231.578 38.3266C231.578 36.2846 232.098 34.683 233.139 33.5219C234.22 32.3608 235.622 31.5 237.344 30.9394C239.105 30.3789 241.007 29.9985 243.049 29.7983C245.131 29.5981 247.153 29.438 249.115 29.3179V24.5733C249.115 22.6914 248.634 21.23 247.674 20.189C246.753 19.108 245.171 18.5674 242.929 18.5674C241.808 18.5674 240.747 18.9278 239.746 19.6485C238.785 20.3692 238.304 21.4102 238.304 22.7715C238.304 23.4121 238.465 23.9527 238.785 24.3931C239.105 24.8335 239.426 25.1738 239.746 25.4141C240.066 25.6543 240.226 25.8145 240.226 25.8945C240.226 26.0547 239.986 26.355 239.506 26.7954C239.065 27.1958 238.445 27.396 237.644 27.396C236.403 27.396 235.442 26.9355 234.761 26.0147C234.08 25.0938 233.74 24.0728 233.74 22.9517C233.74 21.4302 234.2 20.229 235.121 19.3482C236.082 18.4673 237.303 17.8267 238.785 17.4263C240.266 17.0259 241.768 16.8257 243.289 16.8257C245.091 16.8257 246.833 17.046 248.514 17.4864C250.236 17.9268 251.637 18.7676 252.718 20.0088C253.839 21.25 254.4 23.1118 254.4 25.5942V39.5878C254.44 39.9882 254.54 40.4687 254.7 41.0292C254.86 41.5897 255.161 42.0902 255.601 42.5307C256.082 42.931 256.722 43.1312 257.523 43.1312C257.803 43.1312 258.024 43.1913 258.184 43.3114C258.344 43.3915 258.424 43.6517 258.424 44.0922C258.424 44.4525 258.224 44.7328 257.823 44.933C257.423 45.1332 256.963 45.2733 256.442 45.3534C255.921 45.4335 255.481 45.4735 255.121 45.4735C253.639 45.4735 252.318 45.0531 251.157 44.2123C249.996 43.3314 249.315 42.1303 249.115 40.6088C248.234 42.2103 246.913 43.4315 245.151 44.2723C243.429 45.0731 241.588 45.4735 239.626 45.4735ZM241.548 42.2304C242.909 42.2304 244.15 41.89 245.271 41.2094C246.432 40.5287 247.353 39.6078 248.034 38.4467C248.755 37.2455 249.115 35.9242 249.115 34.4829V31.0595C244.991 31.3398 242.048 32.0004 240.286 33.0415C238.525 34.0825 237.644 35.7841 237.644 38.1464C237.644 40.869 238.945 42.2304 241.548 42.2304Z" fill="#2B111A"/>
<path d="M261.966 44.933C261.686 44.933 261.445 44.8129 261.245 44.5726C261.085 44.2924 261.005 44.0121 261.005 43.7318C261.045 43.1312 261.185 42.8109 261.425 42.7709C261.706 42.6908 262.026 42.6508 262.386 42.6508C263.507 42.6508 264.268 42.4706 264.669 42.1102C265.109 41.7099 265.349 41.1893 265.389 40.5487C265.469 39.9081 265.509 39.2475 265.509 38.5668V9.25842C265.509 8.53772 265.469 7.87708 265.389 7.2765C265.349 6.63587 265.129 6.13539 264.729 5.77504C264.328 5.37465 263.567 5.17446 262.446 5.17446C262.086 5.17446 261.746 5.13442 261.425 5.05434C261.145 4.93423 261.005 4.57388 261.005 3.9733C261.005 3.37271 261.325 3.01236 261.966 2.89225C263.808 2.61197 265.209 2.3317 266.17 2.05143C267.171 1.77116 267.932 1.53093 268.452 1.33073C268.973 1.13054 269.433 1.01042 269.834 0.970385C270.154 0.930347 270.414 0.990406 270.614 1.15056C270.855 1.31071 270.975 1.63102 270.975 2.11149V38.5668C270.975 39.2475 270.995 39.9081 271.035 40.5487C271.115 41.1893 271.355 41.7099 271.755 42.1102C272.196 42.4706 272.977 42.6508 274.098 42.6508C274.458 42.6508 274.758 42.6908 274.999 42.7709C275.279 42.8109 275.439 43.1312 275.479 43.7318C275.479 44.0121 275.399 44.2924 275.239 44.5726C275.079 44.8129 274.838 44.933 274.518 44.933C273.357 44.8529 272.276 44.7928 271.275 44.7528C270.314 44.7528 269.293 44.7528 268.212 44.7528C267.131 44.7528 266.11 44.7528 265.149 44.7528C264.188 44.7928 263.127 44.8529 261.966 44.933Z" fill="#2B111A"/>
<path d="M279.151 44.933C278.83 44.933 278.59 44.8129 278.43 44.5726C278.27 44.2924 278.19 44.0121 278.19 43.7318C278.23 43.1312 278.37 42.8109 278.61 42.7709C278.89 42.6908 279.211 42.6508 279.571 42.6508C280.692 42.6508 281.453 42.4706 281.853 42.1102C282.294 41.7099 282.534 41.1893 282.574 40.5487C282.654 39.9081 282.694 39.2475 282.694 38.5668V9.31847C282.694 8.59777 282.654 7.93713 282.574 7.33655C282.534 6.69593 282.314 6.19545 281.913 5.8351C281.513 5.43471 280.752 5.23452 279.631 5.23452C279.271 5.23452 278.93 5.19448 278.61 5.1144C278.33 4.99428 278.19 4.63393 278.19 4.03335C278.19 3.43277 278.51 3.07242 279.151 2.95231C280.992 2.67203 282.394 2.39176 283.355 2.11149C284.356 1.83122 285.116 1.59099 285.637 1.39079C286.157 1.1906 286.618 1.07048 287.018 1.03044C287.338 0.990404 287.599 1.05046 287.799 1.21062C288.039 1.37077 288.159 1.69108 288.159 2.17155V29.6181C289.921 29.2578 291.362 28.5171 292.483 27.396L297.528 22.231C297.769 21.9507 298.029 21.6504 298.309 21.3301C298.629 21.0098 298.81 20.7095 298.85 20.4292C298.93 20.149 298.77 19.9288 298.369 19.7686C297.969 19.6084 297.208 19.5684 296.087 19.6485C295.647 19.5684 295.406 19.2081 295.366 18.5674C295.366 18.2471 295.446 17.9669 295.606 17.7266C295.807 17.4864 296.047 17.3663 296.327 17.3663C297.248 17.4063 298.349 17.4463 299.63 17.4864C300.952 17.5264 302.053 17.5464 302.934 17.5464C303.614 17.5464 304.275 17.5264 304.915 17.4864C305.596 17.4463 306.277 17.4063 306.957 17.3663C307.278 17.3663 307.518 17.4864 307.678 17.7266C307.838 17.9669 307.918 18.2471 307.918 18.5674C307.878 19.0879 307.758 19.4082 307.558 19.5284C307.398 19.6084 307.178 19.6485 306.897 19.6485C305.336 19.6485 304.075 19.9288 303.114 20.4893C302.153 21.0498 301.072 21.9507 299.871 23.1919L294.826 28.3569C295.306 28.9975 295.947 29.7783 296.748 30.6992C297.548 31.6201 298.389 32.601 299.27 33.642C300.191 34.643 301.052 35.6039 301.853 36.5248C302.653 37.4057 303.294 38.1264 303.774 38.6869C304.936 39.9281 305.896 40.8891 306.657 41.5697C307.458 42.2103 308.439 42.5707 309.6 42.6508C309.92 42.6908 310.221 42.7509 310.501 42.8309C310.781 42.871 310.921 43.1713 310.921 43.7318C310.921 44.0121 310.841 44.2924 310.681 44.5726C310.561 44.8129 310.321 44.933 309.96 44.933C309.4 44.8929 308.939 44.8529 308.579 44.8129C308.219 44.8129 307.818 44.7928 307.378 44.7528C306.937 44.7528 306.297 44.7528 305.456 44.7528C304.655 44.7528 303.494 44.7528 301.973 44.7528C300.571 43.2313 298.95 41.4096 297.108 39.2875C295.306 37.1655 293.504 35.0634 291.703 32.9814C291.302 32.541 290.782 32.1406 290.141 31.7802C289.541 31.3798 288.88 31.2197 288.159 31.2998V38.5668C288.159 39.2475 288.179 39.9081 288.219 40.5487C288.299 41.1893 288.54 41.7099 288.94 42.1102C289.38 42.4706 290.141 42.6508 291.222 42.6508C291.623 42.6508 291.943 42.6908 292.183 42.7709C292.463 42.8109 292.624 43.1312 292.664 43.7318C292.664 44.0121 292.584 44.2924 292.423 44.5726C292.263 44.8129 292.023 44.933 291.703 44.933C290.542 44.8529 289.461 44.7928 288.46 44.7528C287.459 44.7528 286.438 44.7528 285.397 44.7528C284.316 44.7528 283.295 44.7528 282.334 44.7528C281.373 44.7928 280.312 44.8529 279.151 44.933Z" fill="#2B111A"/>
</svg>
