<svg width="310" height="45" viewBox="0 0 310 45" fill="none" xmlns="http://www.w3.org/2000/svg">
<path d="M18.558 44.9355C15.1947 44.9355 12.1117 44.1348 9.30901 42.5332C6.5063 40.9317 4.24411 38.6494 2.52244 35.6866C0.840814 32.7237 0 29.1803 0 25.0563C0 20.9723 0.800775 17.4089 2.40233 14.3659C4.00388 11.2829 6.26607 8.90062 9.1889 7.21899C12.1518 5.49733 15.6351 4.63649 19.639 4.63649C21.0804 4.63649 22.5618 4.77663 24.0833 5.0569C25.6448 5.33717 27.0862 5.81764 28.4075 6.4983C29.7288 7.13892 30.7898 7.99975 31.5906 9.0808C32.4314 10.1618 32.8518 11.5031 32.8518 13.1047C32.8918 14.8264 32.3713 16.3478 31.2903 17.6691C30.2092 18.9504 28.6878 19.591 26.7259 19.591C25.5247 19.591 24.6639 19.3107 24.1434 18.7502C23.6629 18.1496 23.4427 17.7092 23.4827 17.4289C23.4827 17.3088 23.723 17.1086 24.2034 16.8283C24.7239 16.508 25.2244 16.0475 25.7049 15.447C26.2254 14.8063 26.4856 13.9655 26.4856 12.9245C26.4856 11.1228 25.8851 9.7014 24.6839 8.66039C23.4827 7.57934 21.7811 7.03882 19.579 7.03882C17.1766 7.03882 15.0145 7.71948 13.0927 9.0808C11.2109 10.4421 9.72942 12.4441 8.64837 15.0866C7.56733 17.6891 7.0268 20.8922 7.0268 24.6959C7.0268 27.899 7.58735 30.8219 8.70843 33.4644C9.86955 36.0669 11.4711 38.149 13.5131 39.7105C15.5951 41.2319 17.9974 41.9927 20.7201 41.9927C22.8822 41.9927 24.7239 41.5523 26.2454 40.6714C27.8069 39.7505 29.2083 38.2891 30.4495 36.2872C30.8098 35.6065 31.4504 35.5464 32.3713 36.107C32.7317 36.3472 33.012 36.6475 33.2122 37.0079C33.4124 37.3282 33.3723 37.6685 33.092 38.0288C31.5706 39.9507 30.1292 41.4121 28.7678 42.4131C27.4065 43.374 25.9251 44.0347 24.3235 44.395C22.722 44.7554 20.8001 44.9355 18.558 44.9355Z" fill="#F2F2F2"/>
<path d="M51.4013 44.4551C48.5986 44.4551 46.1362 43.7944 44.0142 42.4731C41.9322 41.1519 40.3106 39.4302 39.1495 37.3081C37.9883 35.1861 37.4078 32.9239 37.4078 30.5216C37.4078 28.1593 37.8282 26.0572 38.669 24.2155C39.5098 22.3737 40.6109 20.8322 41.9722 19.591C43.3736 18.3498 44.895 17.4089 46.5366 16.7682C48.1782 16.1276 49.7998 15.8073 51.4013 15.8073C54.204 15.8073 56.6464 16.468 58.7284 17.7892C60.8505 19.1105 62.4921 20.8322 63.6532 22.9542C64.8143 25.0763 65.3949 27.3385 65.3949 29.7408C65.3949 32.1031 64.9544 34.2051 64.0736 36.0469C63.2328 37.8887 62.1117 39.4302 60.7103 40.6714C59.349 41.9126 57.8476 42.8535 56.206 43.4941C54.5644 44.1348 52.9628 44.4551 51.4013 44.4551ZM51.4013 42.2329C53.3632 42.2329 54.9047 41.6524 56.0258 40.4912C57.1869 39.3301 58.0077 37.8086 58.4882 35.9268C59.0087 34.0049 59.2689 31.9429 59.2689 29.7408C59.2689 27.6188 59.0087 25.6769 58.4882 23.9152C57.9677 22.1535 57.1269 20.7321 55.9657 19.651C54.8046 18.57 53.2831 18.0295 51.4013 18.0295C49.4394 18.0295 47.8779 18.61 46.7168 19.7712C45.5557 20.8922 44.7349 22.3937 44.2544 24.2755C43.7739 26.1173 43.5337 28.1593 43.5337 30.4015C43.5337 32.4835 43.7739 34.4254 44.2544 36.2271C44.7749 38.0288 45.6157 39.4903 46.7768 40.6113C47.938 41.6924 49.4795 42.2329 51.4013 42.2329Z" fill="#F2F2F2"/>
<path d="M84.3043 44.4551C81.5016 44.4551 79.0392 43.7944 76.9171 42.4731C74.8351 41.1519 73.2135 39.4302 72.0524 37.3081C70.8913 35.1861 70.3107 32.9239 70.3107 30.5216C70.3107 28.1593 70.7311 26.0572 71.5719 24.2155C72.4128 22.3737 73.5138 20.8322 74.8751 19.591C76.2765 18.3498 77.798 17.4089 79.4396 16.7682C81.0812 16.1276 82.7027 15.8073 84.3043 15.8073C87.107 15.8073 89.5493 16.468 91.6314 17.7892C93.7534 19.1105 95.395 20.8322 96.5561 22.9542C97.7173 25.0763 98.2978 27.3385 98.2978 29.7408C98.2978 32.1031 97.8574 34.2051 96.9765 36.0469C96.1357 37.8887 95.0146 39.4302 93.6133 40.6714C92.252 41.9126 90.7505 42.8535 89.1089 43.4941C87.4673 44.1348 85.8658 44.4551 84.3043 44.4551ZM84.3043 42.2329C86.2662 42.2329 87.8077 41.6524 88.9287 40.4912C90.0899 39.3301 90.9107 37.8086 91.3911 35.9268C91.9116 34.0049 92.1719 31.9429 92.1719 29.7408C92.1719 27.6188 91.9116 25.6769 91.3911 23.9152C90.8706 22.1535 90.0298 20.7321 88.8687 19.651C87.7076 18.57 86.1861 18.0295 84.3043 18.0295C82.3424 18.0295 80.7809 18.61 79.6197 19.7712C78.4586 20.8922 77.6378 22.3937 77.1573 24.2755C76.6769 26.1173 76.4367 28.1593 76.4367 30.4015C76.4367 32.4835 76.6769 34.4254 77.1573 36.2271C77.6779 38.0288 78.5187 39.4903 79.6798 40.6113C80.8409 41.6924 82.3824 42.2329 84.3043 42.2329Z" fill="#F2F2F2"/>
<path d="M102.624 43.9145C102.304 43.9145 102.064 43.7944 101.904 43.5542C101.743 43.2739 101.663 42.9937 101.663 42.7134C101.703 42.1128 101.844 41.7925 102.084 41.7525C102.364 41.6724 102.684 41.6323 103.045 41.6323C104.166 41.6323 104.927 41.4522 105.327 41.0918C105.767 40.6914 106.008 40.1709 106.048 39.5303C106.128 38.8897 106.168 38.229 106.168 37.5484V8.30004C106.168 7.57934 106.128 6.9187 106.048 6.31812C106.008 5.6775 105.787 5.17702 105.387 4.81667C104.987 4.41628 104.226 4.21608 103.105 4.21608C102.744 4.21608 102.404 4.17605 102.084 4.09597C101.804 3.97585 101.663 3.6155 101.663 3.01492C101.663 2.41434 101.984 2.05399 102.624 1.93387C104.466 1.6536 105.867 1.37333 106.828 1.09306C107.829 0.812789 108.59 0.572556 109.111 0.372359C109.631 0.172166 110.092 0.0520496 110.492 0.0120113C110.812 -0.0280269 111.073 0.0320317 111.273 0.192187C111.513 0.352343 111.633 0.672652 111.633 1.15312V28.5997C113.395 28.2394 114.836 27.4986 115.957 26.3776L121.002 21.2126C121.242 20.9323 121.503 20.632 121.783 20.3117C122.103 19.9914 122.283 19.6911 122.323 19.4108C122.403 19.1305 122.243 18.9103 121.843 18.7502C121.443 18.59 120.682 18.55 119.561 18.6301C119.12 18.55 118.88 18.1896 118.84 17.549C118.84 17.2287 118.92 16.9484 119.08 16.7082C119.28 16.468 119.521 16.3478 119.801 16.3478C120.722 16.3879 121.823 16.4279 123.104 16.468C124.425 16.508 125.527 16.528 126.407 16.528C127.088 16.528 127.749 16.508 128.389 16.468C129.07 16.4279 129.751 16.3879 130.431 16.3478C130.752 16.3478 130.992 16.468 131.152 16.7082C131.312 16.9484 131.392 17.2287 131.392 17.549C131.352 18.0695 131.232 18.3898 131.032 18.5099C130.872 18.59 130.651 18.6301 130.371 18.6301C128.81 18.6301 127.548 18.9103 126.588 19.4709C125.627 20.0314 124.546 20.9323 123.344 22.1735L118.3 27.3385C118.78 27.9791 119.421 28.7599 120.221 29.6808C121.022 30.6016 121.863 31.5826 122.744 32.6236C123.665 33.6246 124.526 34.5855 125.326 35.5064C126.127 36.3873 126.768 37.108 127.248 37.6685C128.409 38.9097 129.37 39.8706 130.131 40.5513C130.932 41.1919 131.913 41.5523 133.074 41.6323C133.394 41.6724 133.694 41.7324 133.975 41.8125C134.255 41.8525 134.395 42.1528 134.395 42.7134C134.395 42.9937 134.315 43.2739 134.155 43.5542C134.035 43.7944 133.795 43.9145 133.434 43.9145C132.874 43.8745 132.413 43.8345 132.053 43.7944C131.692 43.7944 131.292 43.7744 130.852 43.7344C130.411 43.7344 129.771 43.7344 128.93 43.7344C128.129 43.7344 126.968 43.7344 125.446 43.7344C124.045 42.2129 122.424 40.3911 120.582 38.2691C118.78 36.147 116.978 34.045 115.176 31.963C114.776 31.5225 114.256 31.1222 113.615 30.7618C113.014 30.3614 112.354 30.2013 111.633 30.2813V37.5484C111.633 38.229 111.653 38.8897 111.693 39.5303C111.773 40.1709 112.013 40.6914 112.414 41.0918C112.854 41.4522 113.615 41.6323 114.696 41.6323C115.096 41.6323 115.417 41.6724 115.657 41.7525C115.937 41.7925 116.097 42.1128 116.137 42.7134C116.137 42.9937 116.057 43.2739 115.897 43.5542C115.737 43.7944 115.497 43.9145 115.176 43.9145C114.015 43.8345 112.934 43.7744 111.933 43.7344C110.932 43.7344 109.911 43.7344 108.87 43.7344C107.789 43.7344 106.768 43.7344 105.807 43.7344C104.846 43.7744 103.785 43.8345 102.624 43.9145Z" fill="#F2F2F2"/>
<path d="M162.151 44.9345C160.557 44.9074 159.004 44.6778 157.491 44.2456C156.005 43.8404 154.668 43.2057 153.48 42.3412C152.291 41.4498 151.346 40.3288 150.643 38.9782C149.941 37.6276 149.59 36.0203 149.59 34.1564C149.59 32.8869 149.833 31.6983 150.319 30.5908C150.832 29.4563 151.575 28.5108 152.548 27.7545C153.547 26.9711 154.79 26.4579 156.275 26.2147V26.0932C155.384 25.4179 154.736 24.6885 154.331 23.9052C153.925 23.1218 153.723 22.2709 153.723 21.3525C153.723 19.5967 154.358 18.1785 155.627 17.098C156.924 15.9905 158.72 15.4367 161.016 15.4367C162.016 15.4367 162.948 15.5853 163.812 15.8824C164.676 16.1796 165.379 16.6388 165.919 17.2601C166.486 17.8814 166.77 18.6782 166.77 19.6507C166.77 20.4611 166.527 21.1904 166.04 21.8387C165.581 22.487 164.906 22.8112 164.015 22.8112C163.42 22.8112 162.961 22.6626 162.637 22.3655C162.313 22.0683 162.151 21.8522 162.151 21.7172C162.151 21.6631 162.259 21.5551 162.475 21.393C162.718 21.2039 162.948 20.9608 163.164 20.6637C163.38 20.3395 163.488 19.9478 163.488 19.4886C163.488 18.6782 163.204 18.0434 162.637 17.5842C162.07 17.125 161.381 16.8954 160.57 16.8954C159.193 16.8954 158.166 17.3141 157.491 18.1515C156.816 18.9619 156.478 19.9073 156.478 20.9878C156.478 22.9597 157.302 24.3914 158.95 25.2828H160.287C160.611 25.2828 160.868 25.3098 161.057 25.3638C161.273 25.4179 161.394 25.715 161.421 26.2553C161.421 26.4984 161.354 26.728 161.219 26.9441C161.111 27.1332 160.922 27.2277 160.651 27.2277H159.233C157.991 27.3358 156.978 27.7139 156.194 28.3622C155.411 28.9835 154.83 29.7534 154.452 30.6718C154.074 31.5902 153.885 32.5357 153.885 33.5081C153.885 35.264 154.29 36.7902 155.1 38.0868C155.911 39.3834 157.032 40.3828 158.463 41.0852C159.922 41.7605 161.57 42.0981 163.407 42.0981C165.379 42.0981 167.175 41.6929 168.796 40.8826C170.444 40.0722 171.754 38.9512 172.726 37.5195C173.726 36.0608 174.225 34.4131 174.225 32.5762C174.225 31.6038 174.036 30.6718 173.658 29.7804C173.307 28.889 172.767 28.1597 172.037 27.5924C171.308 27.0251 170.417 26.7415 169.363 26.7415C168.931 26.7415 168.431 26.836 167.864 27.0251C167.324 27.2142 166.864 27.5113 166.486 27.9165C166.108 28.2947 165.932 28.7944 165.959 29.4157C165.986 29.7669 166.108 30.1046 166.324 30.4287C166.54 30.7258 166.878 30.9149 167.337 30.996C167.796 31.05 168.201 30.996 168.553 30.8339C168.904 30.6718 169.174 30.4962 169.363 30.3071C169.579 30.1181 169.714 30.0235 169.768 30.0235C169.903 30.0505 170.079 30.2531 170.295 30.6313C170.538 31.0095 170.619 31.4822 170.538 32.0495C170.43 32.7788 170.106 33.3461 169.566 33.7513C169.052 34.1294 168.431 34.3185 167.702 34.3185C166.675 34.3185 165.851 33.9133 165.23 33.1029C164.609 32.2656 164.298 31.1986 164.298 29.902C164.298 28.4973 164.555 27.3493 165.068 26.4579C165.608 25.5664 166.311 24.8641 167.175 24.3509C168.066 23.8376 169.052 23.4595 170.133 23.2163C171.213 22.9462 172.307 22.7436 173.415 22.6086C174.549 22.4735 175.63 22.3519 176.656 22.2439C177.683 22.1088 178.561 21.9197 179.29 21.6766C179.884 21.4605 180.384 21.1499 180.789 20.7447C181.195 20.3395 181.384 19.8803 181.357 19.3671C181.33 19.0429 181.208 18.7593 180.992 18.5162C180.776 18.2731 180.398 18.111 179.857 18.0299C179.398 17.9759 178.993 18.0299 178.642 18.192C178.291 18.3541 178.007 18.5297 177.791 18.7188C177.602 18.9078 177.48 19.0024 177.426 19.0024C177.318 18.9754 177.143 18.7728 176.9 18.3946C176.656 18.0164 176.575 17.5437 176.656 16.9764C176.764 16.2471 177.062 15.7069 177.548 15.3557C178.034 14.9775 178.588 14.7614 179.209 14.7074C179.857 14.6534 180.465 14.7479 181.032 14.991C181.762 15.3422 182.262 15.8824 182.532 16.6118C182.802 17.3141 182.923 18.0164 182.896 18.7188C182.869 20.2044 182.37 21.474 181.397 22.5275C180.452 23.581 179.196 24.3914 177.629 24.9587C176.089 25.4989 174.401 25.769 172.564 25.769C173.672 26.7145 174.522 27.7545 175.117 28.889C175.738 30.0235 176.049 31.2661 176.049 32.6167C176.049 35.1829 175.427 37.3979 174.185 39.2618C172.942 41.0987 171.267 42.5168 169.16 43.5163C167.08 44.4887 164.744 44.9615 162.151 44.9345Z" fill="#F2F2F2"/>
<path d="M207.284 44.395C206.883 44.395 206.603 44.2549 206.443 43.9746C206.283 43.6943 206.203 43.394 206.203 43.0737C206.243 42.3931 206.403 42.0127 206.683 41.9326C206.963 41.8526 207.304 41.8125 207.704 41.8125C208.985 41.8125 209.886 41.5923 210.407 41.1519C210.927 40.6714 211.247 40.0908 211.368 39.4102C211.528 38.6895 211.608 37.9488 211.608 37.188V8.54028H207.464C206.102 8.58031 205.041 8.8806 204.281 9.44115C203.52 9.96165 202.959 10.8025 202.599 11.9636C202.239 13.0847 201.918 14.5461 201.638 16.3478C201.598 16.7082 201.338 16.9885 200.857 17.1887C200.417 17.3488 199.977 17.4289 199.536 17.4289C199.256 17.4289 198.936 17.3288 198.575 17.1286C198.255 16.9284 198.095 16.6281 198.095 16.2277L198.275 7.75952C198.275 7.19898 198.435 6.81861 198.755 6.61841C199.076 6.41822 199.456 6.31812 199.896 6.31812H229.265C229.705 6.31812 230.066 6.41822 230.346 6.61841C230.666 6.81861 230.826 7.19898 230.826 7.75952L231.067 16.2277C231.067 16.6281 230.886 16.9284 230.526 17.1286C230.206 17.3288 229.886 17.4289 229.565 17.4289C229.165 17.4289 228.744 17.3488 228.304 17.1887C227.864 16.9885 227.603 16.7082 227.523 16.3478C227.243 14.5461 226.903 13.0847 226.502 11.9636C226.142 10.8025 225.581 9.96165 224.821 9.44115C224.1 8.8806 223.039 8.58031 221.638 8.54028H217.554V37.188C217.594 37.9488 217.674 38.6895 217.794 39.4102C217.914 40.0908 218.234 40.6714 218.755 41.1519C219.315 41.5923 220.216 41.8125 221.457 41.8125C221.858 41.8125 222.198 41.8526 222.478 41.9326C222.759 42.0127 222.919 42.3931 222.959 43.0737C222.959 43.394 222.879 43.6943 222.719 43.9746C222.558 44.2549 222.278 44.395 221.878 44.395C220.597 44.3149 219.375 44.2549 218.214 44.2148C217.093 44.2148 215.952 44.2148 214.791 44.2148C212.389 44.2148 209.886 44.2749 207.284 44.395Z" fill="#F2F2F2"/>
<path d="M238.705 44.9355C236.262 44.9355 234.301 44.2349 232.819 42.8335C231.378 41.4321 230.657 39.7505 230.657 37.7886C230.657 35.7466 231.178 34.1451 232.219 32.984C233.3 31.8228 234.701 30.962 236.423 30.4015C238.184 29.8409 240.086 29.4605 242.128 29.2604C244.21 29.0602 246.232 28.9 248.194 28.7799V24.0353C248.194 22.1535 247.714 20.692 246.753 19.651C245.832 18.57 244.25 18.0295 242.008 18.0295C240.887 18.0295 239.826 18.3898 238.825 19.1105C237.864 19.8312 237.384 20.8722 237.384 22.2335C237.384 22.8742 237.544 23.4147 237.864 23.8551C238.184 24.2955 238.505 24.6359 238.825 24.8761C239.145 25.1163 239.305 25.2765 239.305 25.3566C239.305 25.5167 239.065 25.817 238.585 26.2574C238.144 26.6578 237.524 26.858 236.723 26.858C235.482 26.858 234.521 26.3976 233.84 25.4767C233.159 24.5558 232.819 23.5348 232.819 22.4137C232.819 20.8922 233.28 19.6911 234.2 18.8102C235.161 17.9294 236.383 17.2888 237.864 16.8884C239.345 16.488 240.847 16.2878 242.368 16.2878C244.17 16.2878 245.912 16.508 247.593 16.9484C249.315 17.3888 250.716 18.2297 251.797 19.4709C252.919 20.7121 253.479 22.5739 253.479 25.0563V39.0498C253.519 39.4502 253.619 39.9307 253.779 40.4912C253.94 41.0518 254.24 41.5523 254.68 41.9927C255.161 42.3931 255.801 42.5933 256.602 42.5933C256.882 42.5933 257.103 42.6533 257.263 42.7734C257.423 42.8535 257.503 43.1138 257.503 43.5542C257.503 43.9145 257.303 44.1948 256.902 44.395C256.502 44.5952 256.042 44.7353 255.521 44.8154C255.001 44.8955 254.56 44.9355 254.2 44.9355C252.718 44.9355 251.397 44.5151 250.236 43.6743C249.075 42.7935 248.394 41.5923 248.194 40.0708C247.313 41.6724 245.992 42.8936 244.23 43.7344C242.509 44.5351 240.667 44.9355 238.705 44.9355ZM240.627 41.6924C241.988 41.6924 243.229 41.3521 244.35 40.6714C245.511 39.9907 246.432 39.0699 247.113 37.9087C247.834 36.7076 248.194 35.3863 248.194 33.9449V30.5216C244.07 30.8018 241.127 31.4625 239.365 32.5035C237.604 33.5445 236.723 35.2462 236.723 37.6084C236.723 40.3311 238.024 41.6924 240.627 41.6924Z" fill="#F2F2F2"/>
<path d="M261.045 44.395C260.765 44.395 260.525 44.2749 260.324 44.0347C260.164 43.7544 260.084 43.4741 260.084 43.1939C260.124 42.5933 260.264 42.273 260.505 42.2329C260.785 42.1528 261.105 42.1128 261.465 42.1128C262.587 42.1128 263.347 41.9326 263.748 41.5723C264.188 41.1719 264.428 40.6514 264.468 40.0108C264.548 39.3701 264.588 38.7095 264.588 38.0288V8.72045C264.588 7.99975 264.548 7.33911 264.468 6.73853C264.428 6.09791 264.208 5.59742 263.808 5.23708C263.407 4.83669 262.647 4.63649 261.526 4.63649C261.165 4.63649 260.825 4.59646 260.505 4.51638C260.224 4.39626 260.084 4.03591 260.084 3.43533C260.084 2.83475 260.404 2.4744 261.045 2.35428C262.887 2.07401 264.288 1.79374 265.249 1.51347C266.25 1.2332 267.011 0.992963 267.531 0.79277C268.052 0.592576 268.512 0.47246 268.913 0.432421C269.233 0.392383 269.493 0.452442 269.693 0.612597C269.934 0.77275 270.054 1.09306 270.054 1.57353V38.0288C270.054 38.7095 270.074 39.3701 270.114 40.0108C270.194 40.6514 270.434 41.1719 270.835 41.5723C271.275 41.9326 272.056 42.1128 273.177 42.1128C273.537 42.1128 273.837 42.1528 274.078 42.2329C274.358 42.273 274.518 42.5933 274.558 43.1939C274.558 43.4741 274.478 43.7544 274.318 44.0347C274.158 44.2749 273.918 44.395 273.597 44.395C272.436 44.3149 271.355 44.2549 270.354 44.2148C269.393 44.2148 268.372 44.2148 267.291 44.2148C266.21 44.2148 265.189 44.2148 264.228 44.2148C263.267 44.2549 262.206 44.3149 261.045 44.395Z" fill="#F2F2F2"/>
<path d="M278.23 44.395C277.909 44.395 277.669 44.2749 277.509 44.0347C277.349 43.7544 277.269 43.4741 277.269 43.1939C277.309 42.5933 277.449 42.273 277.689 42.2329C277.969 42.1528 278.29 42.1128 278.65 42.1128C279.771 42.1128 280.532 41.9326 280.932 41.5723C281.373 41.1719 281.613 40.6514 281.653 40.0108C281.733 39.3701 281.773 38.7095 281.773 38.0288V8.78051C281.773 8.05981 281.733 7.39917 281.653 6.79859C281.613 6.15797 281.393 5.65748 280.992 5.29714C280.592 4.89675 279.831 4.69655 278.71 4.69655C278.35 4.69655 278.009 4.65651 277.689 4.57644C277.409 4.45632 277.269 4.09597 277.269 3.49539C277.269 2.89481 277.589 2.53446 278.23 2.41434C280.071 2.13407 281.473 1.8538 282.434 1.57353C283.435 1.29326 284.195 1.05302 284.716 0.852827C285.236 0.652633 285.697 0.532517 286.097 0.492479C286.418 0.452441 286.678 0.512499 286.878 0.672655C287.118 0.83281 287.238 1.15312 287.238 1.63358V29.0802C289 28.7198 290.441 27.9791 291.563 26.858L296.607 21.693C296.848 21.4127 297.108 21.1125 297.388 20.7921C297.709 20.4718 297.889 20.1715 297.929 19.8913C298.009 19.611 297.849 19.3908 297.448 19.2306C297.048 19.0705 296.287 19.0304 295.166 19.1105C294.726 19.0304 294.485 18.6701 294.445 18.0295C294.445 17.7092 294.525 17.4289 294.686 17.1887C294.886 16.9484 295.126 16.8283 295.406 16.8283C296.327 16.8683 297.428 16.9084 298.709 16.9484C300.031 16.9885 301.132 17.0085 302.013 17.0085C302.693 17.0085 303.354 16.9885 303.995 16.9484C304.675 16.9084 305.356 16.8683 306.037 16.8283C306.357 16.8283 306.597 16.9484 306.757 17.1887C306.917 17.4289 306.997 17.7092 306.997 18.0295C306.957 18.55 306.837 18.8703 306.637 18.9904C306.477 19.0705 306.257 19.1105 305.977 19.1105C304.415 19.1105 303.154 19.3908 302.193 19.9513C301.232 20.5119 300.151 21.4127 298.95 22.654L293.905 27.819C294.385 28.4596 295.026 29.2403 295.827 30.1612C296.627 31.0821 297.468 32.0631 298.349 33.1041C299.27 34.105 300.131 35.066 300.932 35.9869C301.732 36.8677 302.373 37.5884 302.853 38.149C304.015 39.3902 304.976 40.3511 305.736 41.0318C306.537 41.6724 307.518 42.0327 308.679 42.1128C308.999 42.1528 309.3 42.2129 309.58 42.293C309.86 42.333 310 42.6333 310 43.1939C310 43.4741 309.92 43.7544 309.76 44.0347C309.64 44.2749 309.4 44.395 309.039 44.395C308.479 44.355 308.018 44.3149 307.658 44.2749C307.298 44.2749 306.897 44.2549 306.457 44.2148C306.017 44.2148 305.376 44.2148 304.535 44.2148C303.734 44.2148 302.573 44.2148 301.052 44.2148C299.65 42.6934 298.029 40.8716 296.187 38.7495C294.385 36.6275 292.584 34.5255 290.782 32.4434C290.381 32.003 289.861 31.6026 289.22 31.2423C288.62 30.8419 287.959 30.6817 287.238 30.7618V38.0288C287.238 38.7095 287.258 39.3701 287.298 40.0108C287.379 40.6514 287.619 41.1719 288.019 41.5723C288.46 41.9326 289.22 42.1128 290.301 42.1128C290.702 42.1128 291.022 42.1528 291.262 42.2329C291.543 42.273 291.703 42.5933 291.743 43.1939C291.743 43.4741 291.663 43.7544 291.502 44.0347C291.342 44.2749 291.102 44.395 290.782 44.395C289.621 44.3149 288.54 44.2549 287.539 44.2148C286.538 44.2148 285.517 44.2148 284.476 44.2148C283.395 44.2148 282.374 44.2148 281.413 44.2148C280.452 44.2549 279.391 44.3149 278.23 44.395Z" fill="#F2F2F2"/>
</svg>
