<svg width="20" height="20" viewBox="0 0 20 20" fill="none" xmlns="http://www.w3.org/2000/svg">
<g clip-path="url(#clip0_445_335)">
<path d="M7.36908 14.3333H3.66675V15.3333C3.66675 15.5101 3.73699 15.6796 3.86201 15.8047C3.98703 15.9297 4.1566 15.9999 4.33341 15.9999H7.78442C7.57034 15.466 7.43059 14.9052 7.36908 14.3333Z" fill="#2B111A"/>
<path d="M3.41641 9.88366C3.48806 9.90209 3.55155 9.94383 3.59688 10.0023C3.6422 10.0608 3.66678 10.1327 3.66674 10.2067V13.6667H7.33341C7.33122 12.6052 7.59643 11.5602 8.10456 10.6282C8.6127 9.69618 9.34739 8.90718 10.2408 8.33398C11.1343 7.76077 12.1577 7.42183 13.2167 7.34843C14.2757 7.27503 15.3361 7.46954 16.3001 7.914C16.5709 7.3561 16.6952 6.73843 16.6613 6.1192C16.6274 5.49997 16.4363 4.89957 16.1062 4.37459C15.776 3.84962 15.3176 3.41736 14.7742 3.11855C14.2308 2.81974 13.6202 2.66423 13.0001 2.66666C12.7468 2.6672 12.4942 2.69288 12.2461 2.74333C12.1763 2.75748 12.1039 2.74893 12.0394 2.71894C11.9748 2.68895 11.9216 2.63909 11.8874 2.57666C11.5713 1.99863 11.1055 1.51631 10.5389 1.1803C9.9722 0.844296 9.32554 0.666992 8.66674 0.666992C8.00794 0.666992 7.36128 0.844296 6.79461 1.1803C6.22793 1.51631 5.76213 1.99863 5.44607 2.57666C5.41191 2.63909 5.35867 2.68895 5.29413 2.71894C5.22959 2.74893 5.15715 2.75748 5.08741 2.74333C4.83923 2.69288 4.58666 2.6672 4.33341 2.66666C3.44087 2.66649 2.57891 2.99188 1.90914 3.58181C1.23937 4.17175 0.807772 4.98574 0.695269 5.87116C0.582767 6.75658 0.797084 7.65263 1.29804 8.39132C1.79899 9.13002 2.55219 9.66062 3.41641 9.88366Z" fill="#2B111A"/>
<path d="M17.3333 13.3333H17.983C17.9135 12.4173 17.5528 11.5475 16.9537 10.851L16.495 11.3097C16.4321 11.3704 16.3479 11.404 16.2605 11.4032C16.1731 11.4025 16.0895 11.3674 16.0277 11.3056C15.9659 11.2438 15.9309 11.1602 15.9301 11.0728C15.9294 10.9854 15.963 10.9012 16.0237 10.8383L16.4823 10.3797C15.7858 9.7807 14.916 9.42005 14 9.35034V10C14 10.0884 13.9649 10.1732 13.9024 10.2357C13.8399 10.2982 13.7551 10.3333 13.6667 10.3333C13.5783 10.3333 13.4935 10.2982 13.431 10.2357C13.3685 10.1732 13.3333 10.0884 13.3333 10V9.35034C12.4173 9.42005 11.5476 9.7807 10.851 10.3797L11.3097 10.8383C11.3415 10.8691 11.3669 10.9059 11.3844 10.9465C11.4018 10.9872 11.411 11.0309 11.4114 11.0752C11.4118 11.1195 11.4034 11.1634 11.3866 11.2043C11.3699 11.2453 11.3451 11.2825 11.3138 11.3138C11.2825 11.3451 11.2453 11.3699 11.2043 11.3866C11.1634 11.4034 11.1195 11.4118 11.0752 11.4114C11.0309 11.411 10.9872 11.4018 10.9465 11.3844C10.9059 11.3669 10.8691 11.3415 10.8383 11.3097L10.3797 10.851C9.78056 11.5475 9.41988 12.4173 9.35034 13.3333H10C10.0884 13.3333 10.1732 13.3685 10.2357 13.431C10.2982 13.4935 10.3333 13.5783 10.3333 13.6667C10.3333 13.7551 10.2982 13.8399 10.2357 13.9024C10.1732 13.9649 10.0884 14 10 14H9.35034C9.41988 14.9161 9.78056 15.7859 10.3797 16.4823L10.8383 16.0237C10.9012 15.963 10.9854 15.9294 11.0728 15.9301C11.1602 15.9309 11.2438 15.9659 11.3056 16.0277C11.3674 16.0895 11.4025 16.1731 11.4032 16.2605C11.404 16.3479 11.3704 16.4321 11.3097 16.495L10.851 16.9537C11.5476 17.5526 12.4173 17.9133 13.3333 17.983V17.3333C13.3333 17.2449 13.3685 17.1602 13.431 17.0976C13.4935 17.0351 13.5783 17 13.6667 17C13.7551 17 13.8399 17.0351 13.9024 17.0976C13.9649 17.1602 14 17.2449 14 17.3333V17.983C14.916 17.9133 15.7858 17.5526 16.4823 16.9537L16.0237 16.495C15.963 16.4321 15.9294 16.3479 15.9301 16.2605C15.9309 16.1731 15.9659 16.0895 16.0277 16.0277C16.0895 15.9659 16.1731 15.9309 16.2605 15.9301C16.3479 15.9294 16.4321 15.963 16.495 16.0237L16.9537 16.4823C17.5528 15.7859 17.9135 14.9161 17.983 14H17.3333C17.2449 14 17.1602 13.9649 17.0976 13.9024C17.0351 13.8399 17 13.7551 17 13.6667C17 13.5783 17.0351 13.4935 17.0976 13.431C17.1602 13.3685 17.2449 13.3333 17.3333 13.3333ZM14.944 14.5183C14.9197 14.5548 14.8885 14.586 14.8521 14.6104C14.8157 14.6348 14.7749 14.6517 14.732 14.6603C14.689 14.6689 14.6448 14.6689 14.6019 14.6604C14.5589 14.6519 14.5181 14.635 14.4817 14.6107L13.4817 13.944C13.436 13.9136 13.3986 13.8723 13.3727 13.8239C13.3469 13.7756 13.3333 13.7215 13.3333 13.6667V11.3333C13.3333 11.2449 13.3685 11.1602 13.431 11.0976C13.4935 11.0351 13.5783 11 13.6667 11C13.7551 11 13.8399 11.0351 13.9024 11.0976C13.9649 11.1602 14 11.2449 14 11.3333V13.4883L14.8517 14.055C14.8882 14.0793 14.9196 14.1106 14.9441 14.147C14.9685 14.1835 14.9855 14.2244 14.9941 14.2675C15.0027 14.3105 15.0027 14.3549 14.9941 14.3979C14.9855 14.441 14.9685 14.4819 14.944 14.5183Z" fill="#2B111A"/>
<path d="M13.6667 8C12.5459 8 11.4503 8.33234 10.5184 8.95501C9.58656 9.57767 8.86025 10.4627 8.43135 11.4981C8.00246 12.5336 7.89024 13.673 8.10889 14.7722C8.32754 15.8714 8.86723 16.8811 9.65973 17.6736C10.4522 18.4661 11.4619 19.0058 12.5612 19.2245C13.6604 19.4431 14.7998 19.3309 15.8352 18.902C16.8707 18.4731 17.7557 17.7468 18.3783 16.8149C19.001 15.883 19.3333 14.7874 19.3333 13.6667C19.3317 12.1643 18.7341 10.7239 17.6718 9.66158C16.6094 8.59924 15.169 8.00168 13.6667 8ZM17.2103 17.19C17.207 17.1937 17.2057 17.1987 17.202 17.202C17.1983 17.2053 17.1937 17.207 17.19 17.2103C16.2546 18.1429 14.9876 18.6666 13.6667 18.6666C12.3458 18.6666 11.0788 18.1429 10.1433 17.2103C10.1397 17.207 10.135 17.2057 10.1313 17.202C10.1277 17.1983 10.1263 17.1937 10.123 17.19C9.19041 16.2546 8.66672 14.9876 8.66672 13.6667C8.66672 12.3458 9.19041 11.0788 10.123 10.1433C10.1263 10.1397 10.1277 10.1347 10.1313 10.1313C10.135 10.128 10.1397 10.1263 10.1433 10.123C11.0788 9.19041 12.3458 8.66672 13.6667 8.66672C14.9876 8.66672 16.2546 9.19041 17.19 10.123C17.1937 10.1263 17.1983 10.1277 17.202 10.1313C17.2057 10.135 17.207 10.1397 17.2103 10.1433C18.1429 11.0788 18.6666 12.3458 18.6666 13.6667C18.6666 14.9876 18.1429 16.2546 17.2103 17.19Z" fill="#2B111A"/>
</g>
<defs>
<clipPath id="clip0_445_335">
<rect width="20" height="20" fill="white"/>
</clipPath>
</defs>
</svg>
