<svg width="20" height="20" viewBox="0 0 20 20" fill="none" xmlns="http://www.w3.org/2000/svg">
<g clip-path="url(#clip0_445_341)">
<path d="M10.3195 3.00415C6.66147 3.00415 3.69604 5.96958 3.69604 9.62763C3.69604 13.2857 6.66147 16.2511 10.3195 16.2511C13.9776 16.2511 16.943 13.2857 16.943 9.62763C16.943 5.96958 13.9776 3.00415 10.3195 3.00415ZM10.3195 14.6534C7.54831 14.6534 5.29378 12.3988 5.29378 9.62767C5.29378 6.85649 7.54831 4.60196 10.3195 4.60196C13.0907 4.60196 15.3452 6.85649 15.3452 9.62767C15.3452 12.3988 13.0907 14.6534 10.3195 14.6534Z" fill="#2B111A"/>
<path d="M10.3194 5.94922C8.29106 5.94922 6.64087 7.59941 6.64087 9.62777C6.64087 11.6561 8.29106 13.3063 10.3194 13.3063C12.3478 13.3063 13.998 11.6561 13.998 9.62777C13.998 7.59941 12.3478 5.94922 10.3194 5.94922Z" fill="#2B111A"/>
<path d="M19.5827 10.183V2.1343C19.5827 2.05664 19.5332 1.98762 19.4595 1.96281C19.3859 1.93805 19.3047 1.96309 19.2577 2.02496C18.2535 3.3493 17.71 4.96571 17.71 6.6277V9.57215C17.71 9.90985 17.9837 10.1836 18.3214 10.1836H18.5764C18.3251 12.7791 18.159 16.409 18.159 16.8341C18.159 17.5037 18.5712 18.0465 19.0796 18.0465C19.588 18.0465 20.0001 17.5036 20.0001 16.8341C20.0001 16.409 19.8341 12.7784 19.5827 10.183Z" fill="#2B111A"/>
<path d="M2.67254 8.58753C3.18199 8.27894 3.5225 7.7194 3.5225 7.08026L3.27016 2.95444C3.26051 2.79718 3.13016 2.67456 2.97258 2.67456C2.80215 2.67456 2.66637 2.81733 2.67484 2.98745L2.83895 6.2964C2.83895 6.48241 2.68812 6.63315 2.50219 6.63315C2.31621 6.63315 2.16543 6.48233 2.16543 6.2964L2.08344 2.98882C2.0791 2.81401 1.93617 2.6746 1.76129 2.6746C1.58641 2.6746 1.44352 2.81405 1.43914 2.98882L1.35715 6.2964C1.35715 6.48241 1.20633 6.63315 1.02039 6.63315C0.834414 6.63315 0.683633 6.48233 0.683633 6.2964L0.847734 2.98745C0.856172 2.81726 0.720313 2.67456 0.55 2.67456C0.392422 2.67456 0.26207 2.79718 0.252461 2.95444L0 7.0803C0 7.71944 0.340469 8.27893 0.849961 8.58757C1.18152 8.78839 1.36637 9.16386 1.32363 9.54917C1.03602 12.1413 0.840703 16.3731 0.840703 16.8341C0.840703 17.5037 1.25285 18.0465 1.76125 18.0465C2.26965 18.0465 2.6818 17.5037 2.6818 16.8341C2.6818 16.3731 2.48645 12.1413 2.19887 9.54917C2.15609 9.16405 2.34113 8.78827 2.67254 8.58753Z" fill="#2B111A"/>
</g>
<defs>
<clipPath id="clip0_445_341">
<rect width="20" height="20" fill="white"/>
</clipPath>
</defs>
</svg>
