<svg width="20" height="20" viewBox="0 0 20 20" fill="none" xmlns="http://www.w3.org/2000/svg">
<g clip-path="url(#clip0_445_369)">
<path d="M12.1166 1.91025V1.14289C12.1166 0.511745 11.605 0 10.9737 0C10.3426 0 9.83081 0.511745 9.83081 1.14289V1.92793C10.5891 1.82709 11.3569 1.82113 12.1166 1.91025Z" fill="#2B111A"/>
<path d="M17.6704 13.6105C17.6678 13.6123 17.6652 13.6138 17.6626 13.6154L14.6961 15.4143C14.7458 15.5812 14.7777 15.7527 14.791 15.9264C14.806 16.1237 14.6583 16.296 14.4608 16.3112L9.86243 16.6622C9.85315 16.6629 9.84387 16.6633 9.83459 16.6633C9.64201 16.6631 9.48391 16.5108 9.47656 16.3182C9.46938 16.1256 9.61557 15.9618 9.8078 15.9472L14.0115 15.6263C13.781 14.8439 13.0357 14.3288 12.2223 14.3899L9.42474 14.6035C8.86922 14.6452 8.31161 14.5615 7.79304 14.3584L7.49401 14.241C6.03405 13.6636 4.37539 13.9291 3.16895 14.9337L3.47638 18.9608L3.90146 18.6726C4.35543 18.3642 4.91147 18.2441 5.45228 18.3377L10.3237 19.1739C11.2509 19.2651 12.1834 19.0617 12.9882 18.5921L19.0859 13.6828C18.6787 13.3572 18.1088 13.3279 17.6704 13.6105Z" fill="#2B111A"/>
<path d="M2.79415 11.5829C3.14185 12.2748 3.85301 12.7087 4.62737 12.7013H17.477C18.2514 12.7087 18.9625 12.2748 19.3101 11.5829L20.0097 10.1018H2.09473L2.79415 11.5829Z" fill="#2B111A"/>
<path d="M0.010498 13.9831L2.36334 13.8035L2.82256 19.8205L0.469896 20.0001L0.010498 13.9831Z" fill="#2B111A"/>
<path d="M16.5238 4.66556C15.0666 3.31345 13.1234 2.56641 11.0521 2.56641C8.98098 2.56641 7.03782 3.31258 5.58067 4.66468C4.21368 5.93328 3.42619 7.59194 3.34058 9.38472H18.7638C18.6782 7.59194 17.8907 5.93416 16.5238 4.66556Z" fill="#2B111A"/>
</g>
<defs>
<clipPath id="clip0_445_369">
<rect width="20" height="20" fill="white"/>
</clipPath>
</defs>
</svg>
