<svg width="20" height="20" viewBox="0 0 20 20" fill="none" xmlns="http://www.w3.org/2000/svg">
<g clip-path="url(#clip0_445_311)">
<path d="M15.1986 7.20134H10.9267C11.3127 7.20134 11.6266 6.88745 11.6266 6.5009C11.6266 6.11436 11.3121 5.80273 10.9267 5.80273H9.17955C8.79357 5.80273 8.48025 6.11436 8.48025 6.5009C8.48025 6.88745 8.79414 7.20134 9.17955 7.20134H4.9071C3.7185 7.20134 2.73426 8.26676 2.54297 9.40086H17.5644C17.372 8.26619 16.3877 7.20134 15.1986 7.20134Z" fill="#2B111A"/>
<path d="M17.599 10.6014V10.4016H2.54236H2.50717H0V11.4018H2.50717V17.599C2.50717 18.9261 3.58223 19.9995 4.90705 19.9995H15.1991C16.525 19.9995 17.5995 18.9261 17.5995 17.599V11.6016H20V10.6014H17.599Z" fill="#2B111A"/>
<path d="M6.37995 2.40378C6.44977 2.49573 6.52413 2.58428 6.60189 2.66772L6.79545 2.86185C6.91805 2.98502 7.03214 3.10819 7.12296 3.21888C7.16837 3.27451 7.20584 3.32729 7.23365 3.371C7.26033 3.41414 7.28473 3.44763 7.29041 3.49758C7.29722 3.55094 7.26941 3.62302 7.21492 3.69511C7.16043 3.76606 7.08437 3.83474 6.99525 3.90343C7.10083 3.94429 7.21605 3.95792 7.33866 3.94316C7.4607 3.92897 7.59465 3.87448 7.70647 3.75812C7.81716 3.64175 7.87903 3.46977 7.88868 3.31821C7.89946 3.16496 7.87619 3.02646 7.84157 2.90158C7.77175 2.65296 7.65596 2.45146 7.53222 2.26642C7.47034 2.1756 7.39372 2.08364 7.33923 2.01269C7.28473 1.94855 7.23422 1.88271 7.18824 1.81743C7.00092 1.5569 6.86981 1.3219 6.82099 1.04604C6.7699 0.766772 6.82667 0.40974 6.99525 0.000488281C6.55762 0.0924423 6.16823 0.458556 6.04108 0.970546C5.97808 1.22314 5.9917 1.5007 6.05925 1.74421C6.12623 1.99283 6.24486 2.21193 6.37995 2.40378Z" fill="#2B111A"/>
<path d="M8.97345 2.40387C9.04326 2.49582 9.11819 2.58437 9.19539 2.66781L9.38838 2.86193C9.51098 2.98511 9.6245 3.10828 9.71759 3.21896C9.7613 3.27459 9.79876 3.32738 9.82714 3.37109C9.85496 3.41423 9.87823 3.44771 9.88277 3.49766C9.89015 3.55102 9.8629 3.62311 9.80841 3.6952C9.75449 3.76615 9.67786 3.83483 9.58761 3.90351C9.69432 3.94438 9.81011 3.958 9.93215 3.94324C10.0536 3.92905 10.1893 3.87456 10.3 3.7582C10.4118 3.64184 10.4725 3.46985 10.4827 3.3183C10.4935 3.16504 10.4708 3.02654 10.4362 2.90167C10.3652 2.65305 10.2489 2.45155 10.1251 2.2665C10.0644 2.17568 9.98721 2.08373 9.93272 2.01278C9.87936 1.94864 9.82771 1.88279 9.78287 1.81752C9.59499 1.55698 9.4633 1.32199 9.41449 1.04613C9.3634 0.767993 9.41903 0.410961 9.58704 0.00170898C9.14998 0.093663 8.76116 0.459776 8.63458 0.971767C8.57157 1.22436 8.58463 1.50192 8.65218 1.74543C8.72029 1.99291 8.83665 2.21201 8.97345 2.40387Z" fill="#2B111A"/>
<path d="M11.3363 2.40378C11.4056 2.49573 11.4799 2.58428 11.5577 2.66772L11.7513 2.86185C11.8739 2.98502 11.9868 3.10819 12.0788 3.21888C12.1242 3.27451 12.1617 3.32729 12.1895 3.371C12.2161 3.41414 12.2394 3.44763 12.2462 3.49758C12.2536 3.55094 12.2252 3.62302 12.1707 3.69511C12.1168 3.76606 12.0402 3.83474 11.9499 3.90343C12.0566 3.94429 12.1724 3.95792 12.2933 3.94316C12.4154 3.92897 12.5505 3.87448 12.6623 3.75812C12.773 3.64175 12.8343 3.46977 12.8439 3.31821C12.8553 3.16496 12.832 3.02646 12.7974 2.90158C12.7276 2.65296 12.6123 2.45146 12.488 2.26642C12.4262 2.1756 12.3495 2.08364 12.295 2.01269C12.2406 1.94855 12.1895 1.88271 12.1441 1.81743C11.9567 1.5569 11.8256 1.3219 11.7774 1.04604C11.7257 0.766772 11.7825 0.40974 11.9499 0.000488281C11.5129 0.0924423 11.1229 0.458556 10.9969 0.970546C10.9345 1.22314 10.9475 1.5007 11.0151 1.74421C11.082 1.99283 11.1995 2.21193 11.3363 2.40378Z" fill="#2B111A"/>
</g>
<defs>
<clipPath id="clip0_445_311">
<rect width="20" height="20" fill="white"/>
</clipPath>
</defs>
</svg>
