<svg width="22" height="22" viewBox="0 0 22 22" fill="none" xmlns="http://www.w3.org/2000/svg">
<g clip-path="url(#clip0_314_244)">
<path d="M21.4262 6.58408C21.376 5.44499 21.1918 4.66189 20.9279 3.98331C20.6557 3.26302 20.2369 2.61814 19.6882 2.08206C19.1522 1.53763 18.503 1.11458 17.7911 0.84662C17.1086 0.582748 16.3296 0.398545 15.1905 0.348322C14.0429 0.293846 13.6786 0.28125 10.768 0.28125C7.85736 0.28125 7.49304 0.293846 6.3497 0.344069C5.21062 0.394291 4.42751 0.578658 3.7491 0.842367C3.02865 1.11458 2.38377 1.53337 1.84768 2.08206C1.30325 2.61814 0.88037 3.26727 0.612245 3.97922C0.348373 4.66189 0.16417 5.44074 0.113947 6.57982C0.0594715 7.72741 0.046875 8.09173 0.046875 11.0023C0.046875 13.9129 0.0594715 14.2773 0.109694 15.4206C0.159916 16.5597 0.344283 17.3428 0.608155 18.0214C0.88037 18.7417 1.30325 19.3865 1.84768 19.9226C2.38377 20.467 3.0329 20.8901 3.74485 21.1581C4.42751 21.4219 5.20637 21.6061 6.34561 21.6564C7.48879 21.7067 7.85327 21.7192 10.7639 21.7192C13.6745 21.7192 14.0388 21.7067 15.1821 21.6564C16.3212 21.6061 17.1043 21.4219 17.7827 21.1581C19.2235 20.601 20.3626 19.4619 20.9196 18.0214C21.1833 17.3387 21.3677 16.5597 21.4179 15.4206C21.4681 14.2773 21.4807 13.9129 21.4807 11.0023C21.4807 8.09173 21.4765 7.72741 21.4262 6.58408ZM19.4957 15.3368C19.4496 16.3838 19.2737 16.9492 19.1271 17.3261C18.7669 18.26 18.0257 19.0013 17.0917 19.3615C16.7148 19.5081 16.1454 19.6839 15.1025 19.7299C13.9717 19.7803 13.6326 19.7927 10.7722 19.7927C7.91183 19.7927 7.56845 19.7803 6.4418 19.7299C5.39482 19.6839 4.82945 19.5081 4.45254 19.3615C3.98778 19.1897 3.56473 18.9175 3.22135 18.5615C2.86538 18.2139 2.59317 17.7951 2.4214 17.3304C2.27482 16.9534 2.09896 16.3838 2.05299 15.3411C2.0026 14.2104 1.99017 13.8711 1.99017 11.0107C1.99017 8.1503 2.0026 7.80692 2.05299 6.68043C2.09896 5.63345 2.27482 5.06808 2.4214 4.69117C2.59317 4.22624 2.86538 3.80336 3.22561 3.45982C3.57308 3.10385 3.99187 2.83163 4.45679 2.66002C4.83371 2.51345 5.40333 2.33759 6.44606 2.29145C7.5768 2.24123 7.91608 2.22864 10.7763 2.22864C13.6409 2.22864 13.9801 2.24123 15.1067 2.29145C16.1537 2.33759 16.7191 2.51345 17.096 2.66002C17.5607 2.83163 17.9838 3.10385 18.3272 3.45982C18.6831 3.80745 18.9554 4.22624 19.1271 4.69117C19.2737 5.06808 19.4496 5.63754 19.4957 6.68043C19.5459 7.81117 19.5585 8.1503 19.5585 11.0107C19.5585 13.8711 19.5459 14.2061 19.4957 15.3368Z" fill="#FB7840"/>
<path d="M10.7679 5.49512C7.72753 5.49512 5.26074 7.96174 5.26074 11.0022C5.26074 14.0427 7.72753 16.5094 10.7679 16.5094C13.8084 16.5094 16.275 14.0427 16.275 11.0022C16.275 7.96174 13.8084 5.49512 10.7679 5.49512ZM10.7679 14.5746C8.79545 14.5746 7.19553 12.9748 7.19553 11.0022C7.19553 9.02966 8.79545 7.42991 10.7679 7.42991C12.7404 7.42991 14.3402 9.02966 14.3402 11.0022C14.3402 12.9748 12.7404 14.5746 10.7679 14.5746Z" fill="#FB7840"/>
<path d="M17.7785 5.27736C17.7785 5.98734 17.2028 6.56302 16.4927 6.56302C15.7827 6.56302 15.207 5.98734 15.207 5.27736C15.207 4.56721 15.7827 3.9917 16.4927 3.9917C17.2028 3.9917 17.7785 4.56721 17.7785 5.27736Z" fill="#FB7840"/>
</g>
<defs>
<clipPath id="clip0_314_244">
<rect width="21.438" height="21.438" fill="white" transform="translate(0.00878906 0.28125)"/>
</clipPath>
</defs>
</svg>
