<svg width="27" height="26" viewBox="0 0 27 26" fill="none" xmlns="http://www.w3.org/2000/svg">
<g clip-path="url(#clip0_264_293)">
<path d="M13.6499 0C6.62757 0 0.921875 5.7057 0.921875 12.728C0.921875 17.9509 4.03806 22.4277 8.5587 24.4028C8.5148 23.525 8.5587 22.4277 8.77816 21.4621C9.04153 20.4088 10.4021 14.5275 10.4021 14.5275C10.4021 14.5275 10.0071 13.6936 10.0071 12.5086C10.0071 10.6213 11.1043 9.21685 12.4649 9.21685C13.606 9.21685 14.1766 10.0946 14.1766 11.148C14.1766 12.2891 13.4305 14.0447 13.0354 15.6686C12.7282 17.0292 13.6938 18.1264 15.0544 18.1264C17.4683 18.1264 19.0923 15.0102 19.0923 11.3674C19.0923 8.55842 17.205 6.49563 13.7816 6.49563C9.91926 6.49563 7.50536 9.39235 7.50536 12.5963C7.50536 13.6935 7.81257 14.4836 8.33925 15.098C8.5587 15.3614 8.60261 15.493 8.5148 15.8002C8.4709 16.0197 8.29534 16.5903 8.25144 16.8097C8.16364 17.1169 7.90033 17.2486 7.59311 17.1169C5.79364 16.3708 5.0036 14.4396 5.0036 12.2451C5.0036 8.64617 8.03198 4.30109 14.0888 4.30109C18.9606 4.30109 22.1645 7.81229 22.1645 11.5868C22.1645 16.5902 19.3995 20.3209 15.3177 20.3209C13.9571 20.3209 12.6405 19.5747 12.2016 18.7409C12.2016 18.7409 11.4554 21.6815 11.3238 22.2521C11.0604 23.2177 10.5337 24.2271 10.051 24.9732C11.1921 25.3243 12.421 25.4999 13.6499 25.4999C20.6723 25.4999 26.378 19.7942 26.378 12.7719C26.378 5.7495 20.6723 0 13.6499 0Z" fill="#FB7840"/>
</g>
<defs>
<clipPath id="clip0_264_293">
<rect width="25.5" height="25.5" fill="white" transform="translate(0.900391)"/>
</clipPath>
</defs>
</svg>
