<svg width="26" height="22" viewBox="0 0 26 22" fill="none" xmlns="http://www.w3.org/2000/svg">
<path d="M25.1462 3.34155C24.2277 3.74445 23.249 4.01151 22.2286 4.14117C23.2783 3.51444 24.0795 2.52957 24.4562 1.34248C23.4775 1.92599 22.3969 2.33815 21.2453 2.56816C20.316 1.57866 18.9915 0.96582 17.5466 0.96582C14.7433 0.96582 12.4864 3.24121 12.4864 6.03064C12.4864 6.432 12.5204 6.81792 12.6038 7.18532C8.39414 6.98001 4.66924 4.96241 2.16693 1.88894C1.73007 2.64689 1.47381 3.51444 1.47381 4.44837C1.47381 6.20199 2.37687 7.75648 3.72296 8.65645C2.90944 8.64101 2.11136 8.40483 1.43522 8.0328C1.43522 8.04823 1.43522 8.0683 1.43522 8.08837C1.43522 10.549 3.19039 12.5928 5.49202 13.0637C5.07986 13.1763 4.63065 13.2304 4.16445 13.2304C3.84028 13.2304 3.51302 13.2119 3.20583 13.1439C3.86189 15.1492 5.72357 16.6234 7.93721 16.6712C6.21446 18.0189 4.02707 18.8309 1.65906 18.8309C1.24381 18.8309 0.845536 18.8123 0.447266 18.7614C2.69024 20.2078 5.34846 21.0337 8.21508 21.0337C17.5327 21.0337 22.6269 13.3153 22.6269 6.62496C22.6269 6.40113 22.6192 6.18501 22.6084 5.97044C23.6133 5.25726 24.4577 4.36655 25.1462 3.34155Z" fill="#FB7840"/>
</svg>
