<svg width="26" height="26" viewBox="0 0 26 26" fill="none" xmlns="http://www.w3.org/2000/svg">
<path d="M23.7331 7.13996C23.463 6.13553 22.671 5.34375 21.6668 5.07329C19.832 4.57129 12.4931 4.57129 12.4931 4.57129C12.4931 4.57129 5.15442 4.57129 3.31972 5.05426C2.33475 5.32443 1.52351 6.13567 1.25333 7.13996C0.770508 8.97452 0.770508 12.7792 0.770508 12.7792C0.770508 12.7792 0.770508 16.603 1.25333 18.4184C1.52379 19.4226 2.31543 20.2144 3.31986 20.4849C5.17374 20.987 12.4934 20.987 12.4934 20.987C12.4934 20.987 19.832 20.987 21.6668 20.5041C22.6712 20.2337 23.463 19.442 23.7334 18.4377C24.2161 16.603 24.2161 12.7985 24.2161 12.7985C24.2161 12.7985 24.2354 8.97452 23.7331 7.13996ZM10.1565 16.294V9.2643L16.2592 12.7792L10.1565 16.294Z" fill="#FB7840"/>
</svg>
